<svg width="20" height="21" viewBox="0 0 20 21" fill="none" xmlns="http://www.w3.org/2000/svg">
<rect width="20" height="21" fill="#F5F5F5"/>
<g id="Group 25">
<g id="Group 4">
<g id="Rectangle 48" filter="url(#filter0_d_0_1)">
<rect x="90" y="-13" width="50" height="50" rx="25" fill="#2D2E38"/>
</g>
</g>
</g>
<g id="Frame 2">
<g id="Rectangle 46" filter="url(#filter1_d_0_1)">
<rect x="-15" y="-14" width="50" height="50" rx="25" fill="#2D2E38"/>
</g>
<path id="Vector" d="M15.34 3.64414C15.1027 3.64414 14.8707 3.71443 14.6733 3.84613C14.476 3.97782 14.3222 4.165 14.2313 4.384C14.1405 4.60299 14.1168 4.84397 14.1631 5.07646C14.2094 5.30894 14.3236 5.52249 14.4915 5.69011C14.6593 5.85772 14.8731 5.97187 15.1059 6.01811C15.3387 6.06435 15.5799 6.04062 15.7992 5.94991C16.0185 5.8592 16.2059 5.70558 16.3378 5.50849C16.4696 5.3114 16.54 5.07968 16.54 4.84264C16.54 4.52478 16.4136 4.21994 16.1885 3.99518C15.9635 3.77041 15.6583 3.64414 15.34 3.64414ZM19.94 6.06111C19.9206 5.23245 19.7652 4.41258 19.48 3.63416C19.2257 2.96812 18.83 2.36503 18.32 1.86637C17.8248 1.35444 17.2196 0.961684 16.55 0.717813C15.7727 0.424342 14.9508 0.26559 14.12 0.248401C13.06 0.188477 12.72 0.188477 10 0.188477C7.28 0.188477 6.94 0.188477 5.88 0.248401C5.04915 0.26559 4.22734 0.424342 3.45 0.717813C2.78168 0.964153 2.17693 1.35657 1.68 1.86637C1.16743 2.36093 0.774176 2.96543 0.53 3.63416C0.236161 4.41053 0.07721 5.23131 0.0599999 6.06111C-5.58794e-08 7.11979 0 7.45936 0 10.176C0 12.8925 -5.58794e-08 13.2321 0.0599999 14.2908C0.07721 15.1206 0.236161 15.9414 0.53 16.7178C0.774176 17.3865 1.16743 17.991 1.68 18.4855C2.17693 18.9953 2.78168 19.3878 3.45 19.6341C4.22734 19.9276 5.04915 20.0863 5.88 20.1035C6.94 20.1634 7.28 20.1634 10 20.1634C12.72 20.1634 13.06 20.1634 14.12 20.1035C14.9508 20.0863 15.7727 19.9276 16.55 19.6341C17.2196 19.3902 17.8248 18.9975 18.32 18.4855C18.8322 17.9887 19.2283 17.3851 19.48 16.7178C19.7652 15.9393 19.9206 15.1195 19.94 14.2908C19.94 13.2321 20 12.8925 20 10.176C20 7.45936 20 7.11979 19.94 6.06111ZM18.14 14.1709C18.1327 14.8049 18.0178 15.4331 17.8 16.0286C17.6403 16.4633 17.3839 16.856 17.05 17.1772C16.7256 17.5073 16.3332 17.7629 15.9 17.9262C15.3037 18.1437 14.6748 18.2585 14.04 18.2658C13.04 18.3157 12.67 18.3257 10.04 18.3257C7.41 18.3257 7.04 18.3257 6.04 18.2658C5.38089 18.2781 4.72459 18.1768 4.1 17.9662C3.68578 17.7945 3.31136 17.5395 3 17.2171C2.66809 16.8963 2.41484 16.5032 2.26 16.0686C2.01586 15.4645 1.88044 14.8221 1.86 14.1709C1.86 13.1722 1.8 12.8027 1.8 10.176C1.8 7.54925 1.8 7.17971 1.86 6.18096C1.86448 5.53283 1.98295 4.89053 2.21 4.28334C2.38605 3.86178 2.65626 3.486 3 3.18472C3.30381 2.84132 3.67929 2.56859 4.1 2.38572C4.70955 2.16604 5.352 2.05122 6 2.04615C7 2.04615 7.37 1.98622 10 1.98622C12.63 1.98622 13 1.98622 14 2.04615C14.6348 2.05342 15.2637 2.16824 15.86 2.38572C16.3144 2.55416 16.7223 2.82801 17.05 3.18472C17.3777 3.49151 17.6338 3.8666 17.8 4.28334C18.0223 4.89151 18.1373 5.53356 18.14 6.18096C18.19 7.17971 18.2 7.54925 18.2 10.176C18.2 12.8027 18.19 13.1722 18.14 14.1709ZM10 5.05238C8.98581 5.05435 7.99496 5.35652 7.15265 5.92071C6.31035 6.48489 5.65438 7.28578 5.26763 8.22216C4.88089 9.15854 4.78072 10.1884 4.97979 11.1816C5.17886 12.1748 5.66824 13.0868 6.38608 13.8024C7.10392 14.5179 8.01801 15.0049 9.01286 15.2018C10.0077 15.3987 11.0387 15.2966 11.9755 14.9086C12.9123 14.5205 13.7129 13.8638 14.2761 13.0214C14.8394 12.1791 15.14 11.1889 15.14 10.176C15.1413 9.5019 15.0092 8.83424 14.7512 8.21137C14.4933 7.5885 14.1146 7.02272 13.6369 6.54656C13.1592 6.07039 12.5919 5.69325 11.9678 5.43683C11.3436 5.1804 10.6749 5.04974 10 5.05238ZM10 13.5018C9.34139 13.5018 8.69757 13.3067 8.14995 12.9413C7.60234 12.5758 7.17552 12.0564 6.92348 11.4487C6.67144 10.841 6.6055 10.1723 6.73398 9.52712C6.86247 8.88197 7.17963 8.28936 7.64533 7.82424C8.11104 7.35911 8.70439 7.04236 9.35035 6.91403C9.99631 6.7857 10.6659 6.85156 11.2743 7.10329C11.8828 7.35501 12.4029 7.78129 12.7688 8.32822C13.1347 8.87515 13.33 9.51817 13.33 10.176C13.33 10.6127 13.2439 11.0452 13.0765 11.4487C12.9092 11.8522 12.6639 12.2188 12.3547 12.5277C12.0454 12.8365 11.6784 13.0815 11.2743 13.2486C10.8703 13.4158 10.4373 13.5018 10 13.5018Z" fill="white"/>
</g>
<defs>
<filter id="filter0_d_0_1" x="-9" y="-108" width="248" height="248" filterUnits="userSpaceOnUse" color-interpolation-filters="sRGB">
<feFlood flood-opacity="0" result="BackgroundImageFix"/>
<feColorMatrix in="SourceAlpha" type="matrix" values="0 0 0 0 0 0 0 0 0 0 0 0 0 0 0 0 0 0 127 0" result="hardAlpha"/>
<feOffset dy="4"/>
<feGaussianBlur stdDeviation="49.5"/>
<feComposite in2="hardAlpha" operator="out"/>
<feColorMatrix type="matrix" values="0 0 0 0 0.272188 0 0 0 0 0.276989 0 0 0 0 0.325 0 0 0 1 0"/>
<feBlend mode="normal" in2="BackgroundImageFix" result="effect1_dropShadow_0_1"/>
<feBlend mode="normal" in="SourceGraphic" in2="effect1_dropShadow_0_1" result="shape"/>
</filter>
<filter id="filter1_d_0_1" x="-114" y="-109" width="248" height="248" filterUnits="userSpaceOnUse" color-interpolation-filters="sRGB">
<feFlood flood-opacity="0" result="BackgroundImageFix"/>
<feColorMatrix in="SourceAlpha" type="matrix" values="0 0 0 0 0 0 0 0 0 0 0 0 0 0 0 0 0 0 127 0" result="hardAlpha"/>
<feOffset dy="4"/>
<feGaussianBlur stdDeviation="49.5"/>
<feComposite in2="hardAlpha" operator="out"/>
<feColorMatrix type="matrix" values="0 0 0 0 0.272188 0 0 0 0 0.276989 0 0 0 0 0.325 0 0 0 1 0"/>
<feBlend mode="normal" in2="BackgroundImageFix" result="effect1_dropShadow_0_1"/>
<feBlend mode="normal" in="SourceGraphic" in2="effect1_dropShadow_0_1" result="shape"/>
</filter>
</defs>
</svg>
