<svg xmlns="http://www.w3.org/2000/svg" width="248" height="248" viewBox="0 0 248 248" fill="none">
  <g filter="url(#filter0_d_143_42)">
    <rect x="99" y="95" width="50" height="50" rx="25" fill="#2D2E38"/>
  </g>
  <path d="M129.34 112.644C129.103 112.644 128.871 112.714 128.673 112.846C128.476 112.978 128.322 113.165 128.231 113.384C128.141 113.603 128.117 113.844 128.163 114.076C128.209 114.309 128.324 114.522 128.491 114.69C128.659 114.858 128.873 114.972 129.106 115.018C129.339 115.064 129.58 115.041 129.799 114.95C130.018 114.859 130.206 114.706 130.338 114.508C130.47 114.311 130.54 114.08 130.54 113.843C130.54 113.525 130.414 113.22 130.189 112.995C129.963 112.77 129.658 112.644 129.34 112.644ZM133.94 115.061C133.921 114.232 133.765 113.413 133.48 112.634C133.226 111.968 132.83 111.365 132.32 110.866C131.825 110.354 131.22 109.962 130.55 109.718C129.773 109.424 128.951 109.266 128.12 109.248C127.06 109.188 126.72 109.188 124 109.188C121.28 109.188 120.94 109.188 119.88 109.248C119.049 109.266 118.227 109.424 117.45 109.718C116.782 109.964 116.177 110.357 115.68 110.866C115.167 111.361 114.774 111.965 114.53 112.634C114.236 113.411 114.077 114.231 114.06 115.061C114 116.12 114 116.459 114 119.176C114 121.893 114 122.232 114.06 123.291C114.077 124.121 114.236 124.941 114.53 125.718C114.774 126.386 115.167 126.991 115.68 127.486C116.177 127.995 116.782 128.388 117.45 128.634C118.227 128.928 119.049 129.086 119.88 129.104C120.94 129.163 121.28 129.163 124 129.163C126.72 129.163 127.06 129.163 128.12 129.104C128.951 129.086 129.773 128.928 130.55 128.634C131.22 128.39 131.825 127.997 132.32 127.486C132.832 126.989 133.228 126.385 133.48 125.718C133.765 124.939 133.921 124.119 133.94 123.291C133.94 122.232 134 121.893 134 119.176C134 116.459 134 116.12 133.94 115.061ZM132.14 123.171C132.133 123.805 132.018 124.433 131.8 125.029C131.64 125.463 131.384 125.856 131.05 126.177C130.726 126.507 130.333 126.763 129.9 126.926C129.304 127.144 128.675 127.259 128.04 127.266C127.04 127.316 126.67 127.326 124.04 127.326C121.41 127.326 121.04 127.326 120.04 127.266C119.381 127.278 118.725 127.177 118.1 126.966C117.686 126.794 117.311 126.54 117 126.217C116.668 125.896 116.415 125.503 116.26 125.069C116.016 124.464 115.88 123.822 115.86 123.171C115.86 122.172 115.8 121.803 115.8 119.176C115.8 116.549 115.8 116.18 115.86 115.181C115.864 114.533 115.983 113.891 116.21 113.283C116.386 112.862 116.656 112.486 117 112.185C117.304 111.841 117.679 111.569 118.1 111.386C118.71 111.166 119.352 111.051 120 111.046C121 111.046 121.37 110.986 124 110.986C126.63 110.986 127 110.986 128 111.046C128.635 111.053 129.264 111.168 129.86 111.386C130.314 111.554 130.722 111.828 131.05 112.185C131.378 112.492 131.634 112.867 131.8 113.283C132.022 113.892 132.137 114.534 132.14 115.181C132.19 116.18 132.2 116.549 132.2 119.176C132.2 121.803 132.19 122.172 132.14 123.171ZM124 114.052C122.986 114.054 121.995 114.357 121.153 114.921C120.31 115.485 119.654 116.286 119.268 117.222C118.881 118.159 118.781 119.188 118.98 120.182C119.179 121.175 119.668 122.087 120.386 122.802C121.104 123.518 122.018 124.005 123.013 124.202C124.008 124.399 125.039 124.297 125.975 123.909C126.912 123.52 127.713 122.864 128.276 122.021C128.839 121.179 129.14 120.189 129.14 119.176C129.141 118.502 129.009 117.834 128.751 117.211C128.493 116.589 128.115 116.023 127.637 115.547C127.159 115.07 126.592 114.693 125.968 114.437C125.344 114.18 124.675 114.05 124 114.052ZM124 122.502C123.341 122.502 122.698 122.307 122.15 121.941C121.602 121.576 121.176 121.056 120.923 120.449C120.671 119.841 120.605 119.172 120.734 118.527C120.862 117.882 121.18 117.289 121.645 116.824C122.111 116.359 122.704 116.042 123.35 115.914C123.996 115.786 124.666 115.852 125.274 116.103C125.883 116.355 126.403 116.781 126.769 117.328C127.135 117.875 127.33 118.518 127.33 119.176C127.33 119.613 127.244 120.045 127.077 120.449C126.909 120.852 126.664 121.219 126.355 121.528C126.045 121.837 125.678 122.081 125.274 122.249C124.87 122.416 124.437 122.502 124 122.502Z" fill="white"/>
  <defs>
    <filter id="filter0_d_143_42" x="0" y="0" width="248" height="248" filterUnits="userSpaceOnUse" color-interpolation-filters="sRGB">
      <feFlood flood-opacity="0" result="BackgroundImageFix"/>
      <feColorMatrix in="SourceAlpha" type="matrix" values="0 0 0 0 0 0 0 0 0 0 0 0 0 0 0 0 0 0 127 0" result="hardAlpha"/>
      <feOffset dy="4"/>
      <feGaussianBlur stdDeviation="49.5"/>
      <feComposite in2="hardAlpha" operator="out"/>
      <feColorMatrix type="matrix" values="0 0 0 0 0.272188 0 0 0 0 0.276989 0 0 0 0 0.325 0 0 0 1 0"/>
      <feBlend mode="normal" in2="BackgroundImageFix" result="effect1_dropShadow_143_42"/>
      <feBlend mode="normal" in="SourceGraphic" in2="effect1_dropShadow_143_42" result="shape"/>
    </filter>
  </defs>
</svg>