<svg width="152" height="43" viewBox="0 0 152 43" fill="none" xmlns="http://www.w3.org/2000/svg">
<g id="Group 163">
<g id="Group">
<path id="Vector" d="M5.4424 14.7876C4.85556 14.0239 4.27049 13.5178 3.68365 13.2691C3.09681 13.0222 2.40922 12.8987 1.62088 12.8987C1.48477 12.8987 1.26029 12.9216 0.943891 12.9657L1.68804 10.2338C2.09459 10.1438 2.39861 10.098 2.60012 10.098C5.10125 10.098 7.17463 11.5654 8.82025 14.5001C10.4659 17.4349 11.7721 21.0504 12.7425 25.3449C14.0488 21.3872 15.5035 17.5195 17.1032 13.74H20.2141L25.0485 30.606H21.5999L18.2521 18.5301C16.5623 22.7805 15.1305 26.807 13.9586 30.606H10.7469C9.64218 25.1403 8.49325 21.0028 7.29836 18.1915L3.24175 30.606H0L5.4424 14.7841V14.7876Z" fill="white"/>
<path id="Vector_2" d="M65.8584 13.7417V18.6324H74.3782V13.7417H77.5563V30.6077H74.3782V21.6677H65.8584V30.6077H62.6803V13.7417H65.8584Z" fill="white"/>
<path id="Vector_3" d="M83.6067 42.4155H80.5647V27.7417H82.9987L88.7469 14.9234C87.5749 13.5742 86.3341 12.8987 85.0279 12.8987C84.6902 12.8987 84.2943 12.9216 83.8453 12.9657L84.5895 10.2338C84.9943 10.1897 85.3213 10.1668 85.5705 10.1668C90.4155 10.1668 94.6311 16.0257 98.214 27.7417H100.648V30.6095H83.6085V42.4155H83.6067ZM94.6965 27.7417C93.4115 23.4913 92.0823 20.1509 90.7071 17.7223L86.4136 27.7417H94.6965Z" fill="white"/>
<path id="Vector_4" d="M101.406 19.3238C102.207 17.4243 103.333 15.9622 104.788 14.9393C106.241 13.9163 107.927 13.4049 109.841 13.4049C111.284 13.4049 112.427 14.068 113.272 15.3943C114.117 16.7223 114.539 18.5319 114.539 20.8246C114.539 22.5107 114.393 24.2373 114.099 26.0028C113.806 27.7682 113.412 29.3026 112.917 30.6077H103.382V42.4137H100.204V26.0522C100.204 23.4666 100.604 21.2232 101.405 19.322L101.406 19.3238ZM110.518 27.606C111.036 25.4243 111.296 23.1862 111.296 20.8934C111.296 19.2973 111.149 18.1439 110.856 17.4366C110.562 16.7276 110.022 16.3749 109.233 16.3749C107.925 16.3749 106.833 16.8423 105.954 17.7753C105.076 18.7082 104.427 19.8899 104.01 21.3167C103.593 22.7453 103.384 24.2127 103.384 25.7188V27.6077H110.518V27.606Z" fill="white"/>
<path id="Vector_5" d="M120.424 42.4155L123.264 31.7894L116.063 13.7417H119.646L124.921 27.1668C125.686 24.9851 126.61 22.546 127.692 19.8476C128.323 18.2056 128.898 16.9357 129.416 16.0363C129.933 15.1368 130.48 14.4737 131.056 14.0468C131.63 13.62 132.3 13.4066 133.067 13.4066C133.338 13.4066 133.608 13.4401 133.879 13.5072L134.757 16.1386H134.487C133.879 16.1386 133.359 16.3237 132.931 16.6959C132.504 17.0663 132.12 17.5618 131.782 18.1809C131.445 18.7999 130.982 19.7611 130.397 21.0645C129.743 22.4807 128.998 24.3255 128.166 26.5971C127.332 28.8687 126.667 30.8582 126.17 32.5672L123.6 42.4173H120.422L120.424 42.4155Z" fill="white"/>
<path id="Vector_6" d="M140.302 13.7417V19.3749L148.822 16.2373V13.7417H152V30.6077H148.822V19.5089L140.302 22.6465V30.6077H137.124V13.7417H140.302ZM144.274 9.42427C144.488 8.81756 144.596 8.24437 144.596 7.70469C144.596 7.43485 144.516 7.22144 144.359 7.06447C144.201 6.90751 144.009 6.82814 143.784 6.82814C143.514 6.82814 143.295 6.94631 143.125 7.18264C142.955 7.41897 142.872 7.78405 142.872 8.27964C142.872 8.54948 142.883 8.75231 142.906 8.88635L140.505 8.14384C140.459 7.82991 140.438 7.58123 140.438 7.40134C140.438 6.47894 140.771 5.72056 141.435 5.12444C142.1 4.52832 142.95 4.23026 143.988 4.23026C145.025 4.23026 145.796 4.53361 146.439 5.14031C147.081 5.74701 147.403 6.53537 147.403 7.50186C147.403 8.17735 147.251 8.97453 146.946 9.89693C146.642 10.8193 146.197 11.7858 145.61 12.7982L143.143 11.8881C143.684 10.8546 144.06 10.0327 144.276 9.42603L144.274 9.42427Z" fill="white"/>
</g>
<g id="Group_2">
<path id="Vector_7" d="M56.3578 25.7347H48.7854V39.8634H38.6395V25.7347H31.0671L43.7178 0.420692L56.3578 25.7347Z" fill="#00D632"/>
<path id="Vector_8" d="M56.3578 33.9622H48.7854V33.2285H38.6395V33.9622H31.0671L43.7178 8.64822L56.3578 33.9622Z" fill="#00D632"/>
</g>
</g>
</svg>
