<svg xmlns="http://www.w3.org/2000/svg" width="69" height="69" viewBox="0 0 69 69" fill="none">
  <rect width="69" height="69" rx="5" fill="#F5F4FA"/>
  <path d="M42.7338 40.1459L46.9578 44.3575L42.7338 40.1459ZM42.7338 40.1459C44.0944 38.261 44.8288 35.9916 44.8259 33.6594M42.7338 40.1459L44.8259 33.6594M44.8259 33.6594C44.8259 33.6596 44.8259 33.6598 44.8259 33.66H44.3259L44.8259 33.6594ZM44.8259 33.6594C44.8257 31.4512 44.1709 29.2926 42.9441 27.4566M44.8259 33.6594L42.9441 27.4566M42.9441 27.4566C41.7172 25.6204 39.9733 24.1892 37.933 23.3441M42.9441 27.4566L37.933 23.3441M37.933 23.3441C35.8927 22.499 33.6476 22.2779 31.4817 22.7087M37.933 23.3441L31.4817 22.7087M31.4817 22.7087C29.3157 23.1395 27.3261 24.203 25.7645 25.7645M31.4817 22.7087L25.7645 25.7645M25.7645 25.7645C24.203 27.3261 23.1395 29.3157 22.7087 31.4817M25.7645 25.7645L22.7087 31.4817M22.7087 31.4817C22.2779 33.6476 22.499 35.8927 23.3441 37.933M22.7087 31.4817L23.3441 37.933M23.3441 37.933C24.1892 39.9733 25.6204 41.7172 27.4566 42.9441M23.3441 37.933L27.4566 42.9441M27.4566 42.9441C29.2926 44.1709 31.4512 44.8257 33.6594 44.8259M27.4566 42.9441L33.6594 44.8259M33.6594 44.8259C35.9916 44.8288 38.261 44.0944 40.1459 42.7338M33.6594 44.8259L40.1459 42.7338M40.1459 42.7338L44.3575 46.9578L40.1459 42.7338ZM44.9541 47.3591C44.7311 47.2662 44.5287 47.1301 44.3584 46.9587L44.9541 47.3591ZM44.9541 47.3591C45.1775 47.4521 45.4171 47.5001 45.6591 47.5001M44.9541 47.3591L45.6591 47.5001M45.6591 47.5001C45.9011 47.5001 46.1407 47.4521 46.3641 47.3591M45.6591 47.5001L46.3641 47.3591M46.3641 47.3591C46.5869 47.2663 46.7891 47.1304 46.9592 46.9592M46.3641 47.3591L46.9592 46.9592M46.9592 46.9592C47.1304 46.7891 47.2663 46.5869 47.3591 46.3641C47.4521 46.1407 47.5001 45.9011 47.5001 45.6591C47.5001 45.4171 47.4521 45.1775 47.3591 44.9541C47.2662 44.7311 47.1301 44.5287 46.9587 44.3584L46.9592 46.9592ZM26.1606 33.66C26.1606 32.1768 26.6004 30.7268 27.4245 29.4936C28.2485 28.2603 29.4198 27.2991 30.7901 26.7315C32.1604 26.1639 33.6683 26.0153 35.1231 26.3047C36.5778 26.5941 37.9141 27.3083 38.9629 28.3571C40.0117 29.4059 40.7259 30.7422 41.0153 32.1969C41.3047 33.6517 41.1562 35.1596 40.5885 36.5299C40.0209 37.9002 39.0597 39.0715 37.8264 39.8955C36.5932 40.7196 35.1432 41.1594 33.66 41.1594C31.671 41.1594 29.7635 40.3693 28.3571 38.9629C26.9507 37.5565 26.1606 35.649 26.1606 33.66Z" fill="#A5AEFF" stroke="#A5AEFF"/>
</svg>