<svg xmlns="http://www.w3.org/2000/svg" width="248" height="248" viewBox="0 0 248 248" fill="none">
  <g filter="url(#filter0_d_143_60)">
    <rect x="99" y="95" width="50" height="50" rx="25" fill="#2D2E38"/>
  </g>
  <path d="M132.445 110.357C132.006 109.993 131.402 109.899 130.873 110.113L112.956 117.347C112.168 117.671 111.792 118.573 112.117 119.361C112.284 119.769 112.618 120.085 113.034 120.23L116.9 121.574L118.994 128.5C118.999 128.514 119.011 128.523 119.017 128.536C119.039 128.591 119.07 128.642 119.11 128.686C119.125 128.704 119.141 128.72 119.159 128.735C119.211 128.779 119.271 128.811 119.337 128.83C119.347 128.832 119.353 128.841 119.363 128.844L119.369 128.843L119.372 128.845C119.406 128.852 119.44 128.856 119.474 128.855C119.518 128.854 119.563 128.846 119.605 128.832C119.613 128.83 119.622 128.831 119.63 128.828C119.702 128.803 119.768 128.761 119.821 128.705C119.827 128.699 119.837 128.698 119.843 128.691L122.857 125.366L127.253 128.77C127.52 128.979 127.85 129.093 128.189 129.093C128.922 129.093 129.555 128.579 129.706 127.861L132.969 111.844C133.082 111.29 132.881 110.718 132.445 110.357ZM120.088 122.888L119.381 126.324L117.906 121.447L125.221 117.638L120.224 122.635C120.155 122.704 120.108 122.792 120.088 122.888ZM128.727 127.66C128.688 127.844 128.557 127.995 128.38 128.058C128.207 128.125 128.012 128.095 127.866 127.98L123.103 124.292C122.896 124.132 122.602 124.158 122.427 124.351L120.331 126.664L121.037 123.236L128.226 116.047C128.421 115.852 128.421 115.535 128.226 115.34C128.072 115.185 127.835 115.149 127.642 115.25L117.278 120.647L113.361 119.285C113.148 119.215 113.003 119.017 113 118.792C112.99 118.566 113.124 118.357 113.334 118.273L131.248 111.041C131.435 110.961 131.651 110.995 131.806 111.127C131.96 111.251 132.03 111.451 131.988 111.644L128.727 127.66Z" fill="white"/>
  <defs>
    <filter id="filter0_d_143_60" x="0" y="0" width="248" height="248" filterUnits="userSpaceOnUse" color-interpolation-filters="sRGB">
      <feFlood flood-opacity="0" result="BackgroundImageFix"/>
      <feColorMatrix in="SourceAlpha" type="matrix" values="0 0 0 0 0 0 0 0 0 0 0 0 0 0 0 0 0 0 127 0" result="hardAlpha"/>
      <feOffset dy="4"/>
      <feGaussianBlur stdDeviation="49.5"/>
      <feComposite in2="hardAlpha" operator="out"/>
      <feColorMatrix type="matrix" values="0 0 0 0 0.272188 0 0 0 0 0.276989 0 0 0 0 0.325 0 0 0 1 0"/>
      <feBlend mode="normal" in2="BackgroundImageFix" result="effect1_dropShadow_143_60"/>
      <feBlend mode="normal" in="SourceGraphic" in2="effect1_dropShadow_143_60" result="shape"/>
    </filter>
  </defs>
</svg>