<svg width="21" height="20" viewBox="0 0 21 20" fill="none" xmlns="http://www.w3.org/2000/svg">
<path d="M20.4455 0.357309C20.0062 -0.00700977 19.4023 -0.10076 18.8732 0.113168L0.956226 7.34657C0.168079 7.67097 -0.207837 8.57289 0.116565 9.36097C0.28435 9.76856 0.618335 10.0849 1.03435 10.2304L4.89958 11.5741L6.99431 18.4999C6.99852 18.514 7.01146 18.5226 7.01689 18.5361C7.03856 18.5914 7.07024 18.6422 7.11022 18.686C7.12511 18.7037 7.14135 18.7202 7.15868 18.7355C7.21086 18.7788 7.27147 18.8109 7.33666 18.8295C7.34661 18.8325 7.35326 18.8413 7.36339 18.8436L7.36925 18.8434L7.37218 18.8446C7.40557 18.8521 7.43962 18.8557 7.47374 18.8554C7.51836 18.8538 7.56261 18.8461 7.60509 18.8325C7.61333 18.8302 7.62163 18.8308 7.62969 18.8281C7.70226 18.8026 7.76781 18.7605 7.82122 18.7052C7.82744 18.699 7.8369 18.6979 7.84288 18.6913L10.8566 15.3661L15.253 18.7704C15.5202 18.9793 15.8495 19.0927 16.1886 19.0927C16.922 19.0925 17.555 18.5788 17.7062 17.8612L20.9689 1.84364C21.082 1.28956 20.8807 0.718271 20.4455 0.357309ZM8.08806 12.8876L7.38085 16.3244L5.90599 11.4465L13.2209 7.63752L8.2238 12.6347C8.15471 12.7038 8.10753 12.7918 8.08806 12.8876ZM16.7267 17.66C16.6884 17.8441 16.5571 17.9951 16.3801 18.0585C16.2071 18.125 16.0118 18.0953 15.8664 17.9804L11.1027 14.2919C10.8965 14.1322 10.6021 14.1582 10.4269 14.3514L8.33129 16.6636L9.03728 13.2362L16.2258 6.04676C16.4211 5.85175 16.4214 5.53535 16.2264 5.34004C16.0722 5.18543 15.8354 5.14893 15.6418 5.24989L5.27843 10.6466L1.3615 9.28504C1.148 9.21479 1.0028 9.01661 1.00017 8.79188C0.989856 8.56556 1.12383 8.35749 1.33416 8.27332L19.2482 1.0409C19.4354 0.961496 19.6513 0.99476 19.8058 1.12684C19.9596 1.25099 20.0303 1.45124 19.9885 1.64442L16.7267 17.66Z" fill="white"/>
</svg>
